<svg width="17" height="17" viewBox="0 0 17 17" fill="none" xmlns="http://www.w3.org/2000/svg">
<path d="M5.75 10.833C6.62423 10.833 7.33266 11.5419 7.33301 12.416V14.916C7.33301 15.7905 6.62445 16.5 5.75 16.5H1.58301C0.708707 16.4998 0 15.7904 0 14.916V12.416C0.000351519 11.542 0.708923 10.8332 1.58301 10.833H5.75ZM14.917 7.5C15.7912 7.50018 16.4998 8.20881 16.5 9.08301V14.917C16.4998 15.7912 15.7912 16.4998 14.917 16.5H10.75C9.87581 16.4998 9.16717 15.7912 9.16699 14.917V9.08301C9.16717 8.20882 9.87581 7.50018 10.75 7.5H14.917ZM1.58301 12.333C1.53735 12.3332 1.50035 12.3704 1.5 12.416V14.916C1.5 14.9619 1.53713 14.9998 1.58301 15H5.75C5.79602 15 5.83301 14.962 5.83301 14.916V12.416C5.83266 12.3703 5.79581 12.333 5.75 12.333H1.58301ZM10.75 9C10.7042 9.00018 10.6672 9.03724 10.667 9.08301V14.917C10.6672 14.9628 10.7042 14.9998 10.75 15H14.917C14.9628 14.9998 14.9998 14.9628 15 14.917V9.08301C14.9998 9.03724 14.9628 9.00017 14.917 9H10.75ZM5.75 0C6.62434 0 7.33283 0.708707 7.33301 1.58301V7.41699C7.33283 8.29129 6.62434 9 5.75 9H1.58301C0.708815 8.99982 0.000175962 8.29118 0 7.41699V1.58301C0.000175866 0.708815 0.708815 0.000175898 1.58301 0H5.75ZM1.58301 1.5C1.53724 1.50018 1.50018 1.53724 1.5 1.58301V7.41699C1.50018 7.46276 1.53724 7.49982 1.58301 7.5H5.75C5.79591 7.5 5.83283 7.46287 5.83301 7.41699V1.58301C5.83283 1.53713 5.79591 1.5 5.75 1.5H1.58301ZM14.917 0C15.7912 0.000175705 16.4998 0.708815 16.5 1.58301V4.08301C16.5 4.95735 15.7913 5.66682 14.917 5.66699H10.75C9.8757 5.66682 9.16699 4.95735 9.16699 4.08301V1.58301C9.16717 0.708815 9.87581 0.000175898 10.75 0H14.917ZM10.75 1.5C10.7042 1.50018 10.6672 1.53724 10.667 1.58301V4.08301C10.667 4.12892 10.7041 4.16682 10.75 4.16699H14.917C14.9629 4.16681 15 4.12892 15 4.08301V1.58301C14.9998 1.53724 14.9628 1.50017 14.917 1.5H10.75Z" fill="#171717"/>
</svg>
