<svg width="15" height="16" viewBox="0 0 15 16" fill="none" xmlns="http://www.w3.org/2000/svg">
<path d="M8 0.583008C9.08285 0.583094 10.122 1.0136 10.8877 1.7793C11.6532 2.5449 12.0838 3.58336 12.084 4.66602V6.58301H12.667C13.8172 6.58318 14.7496 7.51583 14.75 8.66602V13.333C14.75 14.4835 13.8174 15.4158 12.667 15.416H3.33301C2.18256 15.4158 1.25 14.4835 1.25 13.333V8.66602C1.25035 7.51583 2.18278 6.58318 3.33301 6.58301H3.91699V4.66602C3.91716 3.58328 4.34766 2.54492 5.11328 1.7793C5.87895 1.0138 6.9173 0.583094 8 0.583008ZM3.33301 8.08301C3.01121 8.08318 2.75035 8.34426 2.75 8.66602V13.333C2.75 13.6551 3.01099 13.9158 3.33301 13.916H12.667C12.989 13.9158 13.25 13.6551 13.25 13.333V8.66602C13.2496 8.34426 12.9888 8.08318 12.667 8.08301H3.33301ZM8 2.08301C7.31513 2.08309 6.65819 2.35565 6.17383 2.83984C5.68951 3.32416 5.41716 3.98111 5.41699 4.66602V6.58301H10.584V4.66602C10.5838 3.98118 10.3114 3.32414 9.82715 2.83984C9.34276 2.35545 8.68503 2.08309 8 2.08301ZM0.00976562 0.00976562H0V0H0.00976562V0.00976562Z" fill="#737373"/>
</svg>
