<svg width="17" height="17" viewBox="0 0 17 17" fill="none" xmlns="http://www.w3.org/2000/svg">
<path d="M6 0C6.15204 0 6.30115 0.0366806 6.43457 0.106445L6.5625 0.1875L6.67578 0.288086C6.74532 0.360452 6.8025 0.443588 6.8457 0.53418L6.90039 0.674805L6.90234 0.681641L10.5 13.4834L11.7207 9.1416C11.8535 8.66869 12.1376 8.25247 12.5293 7.95605C12.9209 7.65983 13.3987 7.49938 13.8896 7.5H15.75C16.1642 7.5 16.5 7.83579 16.5 8.25C16.5 8.66421 16.1642 9 15.75 9H13.8887C13.7248 8.99965 13.5653 9.05347 13.4346 9.15234C13.3039 9.25121 13.2093 9.39008 13.165 9.54785H13.1641L11.4023 15.8184L11.4004 15.8252C11.3436 16.0199 11.2248 16.1908 11.0625 16.3125C10.9002 16.4342 10.7028 16.5 10.5 16.5C10.2972 16.5 10.0998 16.4342 9.9375 16.3125C9.77524 16.1908 9.65641 16.0199 9.59961 15.8252L9.59766 15.8184L5.99902 3.01562L4.7793 7.3584C4.64699 7.82945 4.36501 8.24479 3.97559 8.54102C3.58588 8.83736 3.10969 8.9985 2.62012 9H0.75C0.335786 9 0 8.66421 0 8.25C0 7.83579 0.335786 7.5 0.75 7.5H2.61523C2.77848 7.49953 2.93744 7.44549 3.06738 7.34668C3.19718 7.24788 3.29092 7.10922 3.33496 6.95215H3.33594L5.09766 0.681641L5.09961 0.674805C5.15642 0.480102 5.27524 0.309192 5.4375 0.1875C5.59978 0.0657922 5.79715 0 6 0Z" fill="#2563EB"/>
</svg>
